name rise30.8019peak61.5557fall86.2505.mot
datacolumns 19
datarows 12
range 22.79325300000000 22.81157900000000
endheader
time	ground_force1_vx	ground_force1_vy	ground_force1_vz	ground_force1_px	ground_force1_py	ground_force1_pz	ground_force2_vx	ground_force2_vy	ground_force2_vz	ground_force2_px	ground_force2_py	ground_force2_pz	ground_torque1_x	ground_torque1_y	ground_torque1_z	ground_torque2_x	ground_torque2_y	ground_torque2_z	
22.79325300000000	-19.22616400000000	687.60533599999997	30.09927100000000	0.10300600000000	0.00000000000000	0.08526700000000	0.00000000000000	0.00000000000000	0.00000000000000	0.00000000000000	0.00000000000000	0.00000000000000	0.00000000000000	10.64164800000000	0.00000000000000	0.00000000000000	0.00000000000000	0.00000000000000	
22.79491200000000	-19.81637900000000	688.08711100000005	30.11344500000000	0.10181200000000	0.00000000000000	0.08527900000000	0.00000000000000	0.00000000000000	0.00000000000000	0.00000000000000	0.00000000000000	0.00000000000000	0.00000000000000	10.70552900000000	0.00000000000000	0.00000000000000	0.00000000000000	0.00000000000000	
22.79658700000000	-20.40624400000000	688.58243200000004	30.12936300000000	0.10062700000000	0.00000000000000	0.08529100000000	0.00000000000000	0.00000000000000	0.00000000000000	0.00000000000000	0.00000000000000	0.00000000000000	0.00000000000000	10.77057800000000	0.00000000000000	0.00000000000000	0.00000000000000	0.00000000000000	
22.79825200000000	-20.99532600000000	689.09376799999995	30.14718600000000	0.09945200000000	0.00000000000000	0.08530200000000	0.00000000000000	0.00000000000000	0.00000000000000	0.00000000000000	0.00000000000000	0.00000000000000	0.00000000000000	10.83678700000000	0.00000000000000	0.00000000000000	0.00000000000000	0.00000000000000	
22.79991900000000	-21.58319400000000	689.62363000000005	30.16708100000000	0.09828800000000	0.00000000000000	0.08531400000000	0.00000000000000	0.00000000000000	0.00000000000000	0.00000000000000	0.00000000000000	0.00000000000000	0.00000000000000	10.90414400000000	0.00000000000000	0.00000000000000	0.00000000000000	0.00000000000000	
22.80158100000000	-22.16942100000000	690.17456200000004	30.18921600000000	0.09713600000000	0.00000000000000	0.08532400000000	0.00000000000000	0.00000000000000	0.00000000000000	0.00000000000000	0.00000000000000	0.00000000000000	0.00000000000000	10.97263400000000	0.00000000000000	0.00000000000000	0.00000000000000	0.00000000000000	
22.80326200000000	-22.75358200000000	690.74912800000004	30.21376300000000	0.09599700000000	0.00000000000000	0.08533500000000	0.00000000000000	0.00000000000000	0.00000000000000	0.00000000000000	0.00000000000000	0.00000000000000	0.00000000000000	11.04224000000000	0.00000000000000	0.00000000000000	0.00000000000000	0.00000000000000	
22.80491500000000	-23.33526200000000	691.34989900000005	30.24089300000000	0.09487100000000	0.00000000000000	0.08534500000000	0.00000000000000	0.00000000000000	0.00000000000000	0.00000000000000	0.00000000000000	0.00000000000000	0.00000000000000	11.11293900000000	0.00000000000000	0.00000000000000	0.00000000000000	0.00000000000000	
22.80658100000000	-23.91405000000000	691.97943899999996	30.27078200000000	0.09376000000000	0.00000000000000	0.08535500000000	0.00000000000000	0.00000000000000	0.00000000000000	0.00000000000000	0.00000000000000	0.00000000000000	0.00000000000000	11.18470600000000	0.00000000000000	0.00000000000000	0.00000000000000	0.00000000000000	
22.80824600000000	-24.48954600000000	692.64029600000003	30.30360300000000	0.09266300000000	0.00000000000000	0.08536400000000	0.00000000000000	0.00000000000000	0.00000000000000	0.00000000000000	0.00000000000000	0.00000000000000	0.00000000000000	11.25751100000000	0.00000000000000	0.00000000000000	0.00000000000000	0.00000000000000	
22.80991300000000	-25.06135900000000	693.33498399999996	30.33953000000000	0.09158200000000	0.00000000000000	0.08537300000000	0.00000000000000	0.00000000000000	0.00000000000000	0.00000000000000	0.00000000000000	0.00000000000000	0.00000000000000	11.33131900000000	0.00000000000000	0.00000000000000	0.00000000000000	0.00000000000000	
22.81157900000000	-25.62910900000000	694.06597499999998	30.37873800000000	0.09051700000000	0.00000000000000	0.08538200000000	0.00000000000000	0.00000000000000	0.00000000000000	0.00000000000000	0.00000000000000	0.00000000000000	0.00000000000000	11.40609200000000	0.00000000000000	0.00000000000000	0.00000000000000	0.00000000000000	
